<?xml version="1.0" encoding="utf-8"?>
<!-- Generator: Adobe Illustrator 18.0.0, SVG Export Plug-In . SVG Version: 6.00 Build 0)  -->
<!DOCTYPE svg PUBLIC "-//W3C//DTD SVG 1.1//EN" "http://www.w3.org/Graphics/SVG/1.1/DTD/svg11.dtd">
<svg version="1.1" id="Слой_1" xmlns="http://www.w3.org/2000/svg" xmlns:xlink="http://www.w3.org/1999/xlink" x="0px" y="0px"
	 viewBox="0 0 960 560" enable-background="new 0 0 960 560" xml:space="preserve">
<g id="Editing2">
	<path fill="#6F7080" d="M8.9,22l3.6,3.6l-5.4,1.8L8.9,22z M10.4,20.7l10-10l3.5,3.5l-10,10L10.4,20.7z M21.8,9.2l1.5-1.6
		c0.2-0.1,0.3-0.2,0.5-0.2c0.2,0,0.4,0.1,0.5,0.2l2.5,2.5c0.1,0.2,0.2,0.3,0.2,0.5c0,0.2-0.1,0.4-0.2,0.5l-1.6,1.5L21.8,9.2z"/>
	<g>
		<circle fill="#6F7080" cx="18.1" cy="26.5" r="1"/>
		<circle fill="#6F7080" cx="24.1" cy="26.5" r="1"/>
	</g>
</g>
<g id="Venues">
	<g>
		<path fill="#6F7080" d="M17.1,8.5c-3.6,0-6.4,3.1-6.4,6.4c0,1.8,0.9,2.6,2.6,5.6c1.5,2.7,2.7,5.1,2.7,5.1c0.6,1.2,1.6,1.2,2.2,0
			c0,0,1.2-2.4,2.8-5.1c1.7-3,2.6-3.8,2.6-5.6C23.5,11.6,20.7,8.5,17.1,8.5z M17.1,18.7c-2.1,0-3.9-1.7-3.9-3.9S15,11,17.1,11
			c2.1,0,3.9,1.7,3.9,3.9S19.2,18.7,17.1,18.7z"/>
		<path fill="#6F7080" d="M17.1,1.5c-8.8,0-16,7.2-16,16s7.2,16,16,16c8.8,0,16-7.2,16-16S25.9,1.5,17.1,1.5z M17.1,32.5
			c-8.3,0-15-6.7-15-15s6.7-15,15-15c8.3,0,15,6.7,15,15S25.4,32.5,17.1,32.5z"/>
	</g>
</g>
<g id="Companies">
	<path fill="#6F7080" d="M17.1,1.5c-8.8,0-16,7.2-16,16s7.2,16,16,16s16-7.2,16-16S25.9,1.5,17.1,1.5z M17.1,32.5
		c-8.3,0-15-6.7-15-15s6.7-15,15-15s15,6.7,15,15S25.4,32.5,17.1,32.5z"/>
	<g>
		<g>
			<path fill="#6F7080" d="M24.1,14.5h-1v10h1c0.6,0,1-0.4,1-1v-8C25.1,14.9,24.7,14.5,24.1,14.5z"/>
			<rect x="12.1" y="14.5" fill="#6F7080" width="10" height="10"/>
			<path fill="#6F7080" d="M11.1,14.5h-1c-0.6,0-1,0.4-1,1v8c0,0.6,0.4,1,1,1h1V14.5z"/>
		</g>
	</g>
	<g>
		<g>
			<path fill="#6F7080" d="M19.1,10.5h-4c-0.6,0-1,0.4-1,1v2h1V12c0-0.3,0.2-0.5,0.5-0.5h3c0.3,0,0.5,0.2,0.5,0.5v1.5h1v-2
				C20.1,10.9,19.7,10.5,19.1,10.5z"/>
		</g>
	</g>
</g>
<g id="Halls">
	<g>
		<g>
			<circle fill="#6F7080" cx="17.4" cy="18.2" r="2.2"/>
			<circle fill="#6F7080" cx="12.3" cy="18.2" r="0.8"/>
			<circle fill="#6F7080" cx="8.9" cy="18.2" r="0.8"/>
			<circle fill="#6F7080" cx="22.5" cy="18.2" r="0.8"/>
			<circle fill="#6F7080" cx="25.9" cy="18.2" r="0.8"/>
			<circle fill="#6F7080" cx="17.4" cy="9.7" r="0.8"/>
			<circle fill="#6F7080" cx="17.4" cy="13.1" r="0.8"/>
			<circle fill="#6F7080" cx="21" cy="14.6" r="0.8"/>
			<circle fill="#6F7080" cx="13.8" cy="14.6" r="0.8"/>
			<circle fill="#6F7080" cx="11.4" cy="12.2" r="0.8"/>
			<circle fill="#6F7080" cx="23.4" cy="12.2" r="0.8"/>
			<circle fill="#6F7080" cx="9.6" cy="14.9" r="0.8"/>
			<circle fill="#6F7080" cx="25.2" cy="14.9" r="0.8"/>
			<circle fill="#6F7080" cx="14.1" cy="10.3" r="0.8"/>
			<circle fill="#6F7080" cx="20.6" cy="10.3" r="0.8"/>
		</g>
		<path fill="#6F7080" d="M17.1,1.5c-8.8,0-16,7.2-16,16s7.2,16,16,16s16-7.2,16-16S25.9,1.5,17.1,1.5z M17.1,32.5
			c-8.3,0-15-6.7-15-15s6.7-15,15-15s15,6.7,15,15S25.4,32.5,17.1,32.5z"/>
	</g>
</g>
<g id="Persons">
	<g>
		<g>
			<g>
				<path fill="#6F7080" d="M11.6,13.5c1.1,0,2-0.9,2-2s-0.9-2-2-2c-1.1,0-2,0.9-2,2S10.5,13.5,11.6,13.5z M8.6,14.5v5h1v6h4v-6h1
					v-5H8.6z"/>
			</g>
			<g>
				<circle fill-rule="evenodd" clip-rule="evenodd" fill="#6F7080" cx="22.6" cy="11.5" r="2"/>
				<polygon fill-rule="evenodd" clip-rule="evenodd" fill="#6F7080" points="25.6,14.5 19.6,14.5 19.6,18.5 20.6,18.5 19.6,24.5 
					21.6,24.5 21.6,25.5 23.6,25.5 23.6,24.5 25.6,24.5 24.6,18.5 25.6,18.5 				"/>
			</g>
		</g>
		<path fill="#6F7080" d="M17.1,1.5c-8.8,0-16,7.2-16,16s7.2,16,16,16s16-7.2,16-16S25.9,1.5,17.1,1.5z M17.1,32.5
			c-8.3,0-15-6.7-15-15s6.7-15,15-15s15,6.7,15,15S25.4,32.5,17.1,32.5z"/>
	</g>
</g>
<g id="UserBurger">
	<g>
		<rect x="8.6" y="21.1" fill="#6F7080" width="17" height="2.4"/>
		<rect x="8.6" y="16.2" fill="#6F7080" width="17" height="2.4"/>
		<rect x="8.6" y="11.4" fill="#6F7080" width="17" height="2.4"/>
	</g>
</g>
<g id="Events">
	<g>
		<path fill="#6F7080" d="M17.1,1.5c-8.8,0-16,7.2-16,16s7.2,16,16,16c8.8,0,16-7.2,16-16S25.9,1.5,17.1,1.5z M17.1,32.5
			c-8.3,0-15-6.7-15-15s6.7-15,15-15c8.3,0,15,6.7,15,15S25.4,32.5,17.1,32.5z"/>
		<g>
			<path fill="#6F7080" d="M21.9,8H10v19h14.3V10.7L21.9,8z M11.2,25.8V9.1h9.5v2.4H23v14.2H11.2z"/>
			<rect x="12.4" y="18.6" fill="#6F7080" width="9.5" height="1.2"/>
			<rect x="12.4" y="16.3" fill="#6F7080" width="9.5" height="1.2"/>
			<rect x="12.4" y="12.7" fill="#6F7080" width="4.8" height="1.2"/>
			<rect x="12.4" y="10.3" fill="#6F7080" width="2.4" height="1.2"/>
			<rect x="12.4" y="21" fill="#6F7080" width="9.5" height="1.2"/>
			<rect x="12.4" y="23.4" fill="#6F7080" width="9.5" height="1.2"/>
		</g>
	</g>
</g>
<g id="ActiveEvents">
	<g>
		<g>
			<g>
				<path fill="#6F7080" d="M24.8,22.3C24.8,22.3,24.8,22.3,24.8,22.3c-1.1-0.4-1.6-1.6-1.2-2.6c0.4-1.1,1.6-1.6,2.6-1.2l0,0
					l0.9-2.4l-9.2-3.3l-0.4,1c0.3,0.1,0.4,0.4,0.3,0.7c-0.1,0.3-0.4,0.4-0.7,0.3l-0.4,1c0.3,0.1,0.4,0.4,0.3,0.7
					c-0.1,0.3-0.4,0.4-0.7,0.3l-0.4,1c0.3,0.1,0.4,0.4,0.3,0.7c-0.1,0.3-0.4,0.4-0.7,0.3l-0.4,1c0.3,0.1,0.4,0.4,0.3,0.7
					c-0.1,0.3-0.4,0.4-0.7,0.3l-0.4,1l9.2,3.3L24.8,22.3z"/>
				<path fill="#6F7080" d="M13.7,20.4c-0.3,0-0.5-0.2-0.5-0.5s0.2-0.5,0.5-0.5h0l0-1l0,0c-0.3,0-0.5-0.2-0.5-0.5s0.2-0.5,0.5-0.5
					c0,0,0,0,0,0l0-1l0,0c-0.3,0-0.5-0.2-0.5-0.5s0.2-0.5,0.5-0.5l0,0l0-1c0,0,0,0,0,0c-0.3,0-0.5-0.2-0.5-0.5s0.2-0.5,0.5-0.5
					c0,0,0,0,0,0l0-1l-4.6,0l0,2.6h0c1.1,0,2.1,0.9,2.1,2.1c0,1.1-0.9,2.1-2.1,2.1c0,0,0,0,0,0l0,2.6l4.6,0V20.4L13.7,20.4z"/>
			</g>
		</g>
		<path fill="#6F7080" d="M17.1,1.5c-8.8,0-16,7.2-16,16s7.2,16,16,16s16-7.2,16-16S25.9,1.5,17.1,1.5z M17.1,32.5
			c-8.3,0-15-6.7-15-15s6.7-15,15-15s15,6.7,15,15S25.4,32.5,17.1,32.5z"/>
	</g>
</g>
<g id="Tickets">
	<g>
		<g>
			<g>
				<path fill="#6F7080" d="M23.2,16.3l-6.1-6.1l-1.2,1.2c0,0,0.2,0.2,0.3,0.6l3.3,3.3l3.4,3.4l0.5,0.5l-0.5,0.5l-1.3,1.3l-0.6,0.6
					l-0.5-0.5c0,0,0,0,0,0c-0.1,0-0.4,0-1,0.7c-0.4,0.4-0.5,0.7-0.6,0.9l2.4,2.4l1.2-1.2c0,0-0.7-0.7,0.7-2.2
					c1.4-1.4,2.1-0.7,2.1-0.7l1.2-1.3L23.2,16.3z"/>
			</g>
			<path fill="#6F7080" d="M7.6,15.2l1.3-1.3c0,0,1.1,0.8,2.4-0.5c1.3-1.3,0.4-2.3,0.4-2.3l1.2-1.2l6.1,6.1l3.4,3.4l-1.2,1.3
				c0,0-0.7-0.8-2.1,0.7c-1.4,1.4-0.7,2.2-0.7,2.2l-1.2,1.2L7.6,15.2z"/>
		</g>
	</g>
	<path fill="#6F7080" d="M17.1,1.5c-8.8,0-16,7.2-16,16s7.2,16,16,16s16-7.2,16-16S25.9,1.5,17.1,1.5z M17.1,32.5
		c-8.3,0-15-6.7-15-15s6.7-15,15-15s15,6.7,15,15S25.4,32.5,17.1,32.5z"/>
</g>
<g id="Roles-Rights">
	<path fill="#6F7080" d="M17.1,1.5c-8.8,0-16,7.2-16,16s7.2,16,16,16c8.8,0,16-7.2,16-16S25.9,1.5,17.1,1.5z M17.1,32.5
		c-8.3,0-15-6.7-15-15s6.7-15,15-15c8.3,0,15,6.7,15,15S25.4,32.5,17.1,32.5z"/>
	<path fill="#6F7080" d="M25.4,10.4c0,0-2.8,0.3-4.1,0c-1.3-0.3-4.2-2.5-4.2-2.5c-0.3,0.2-2.8,2.2-4.1,2.5c-1.4,0.3-4.1,0-4.1,0
		s-0.3,4,1.4,8.9c1.7,4.8,6.9,7.6,6.9,7.6c0,0,5.2-2.8,6.9-7.6C25.7,14.4,25.4,10.4,25.4,10.4z M21.5,18.6c-0.9,2.5-3,4.4-4.4,5.4
		c-1.4-1-3.6-2.9-4.4-5.4c-0.8-2.2-1.1-4.2-1.2-5.7c0.9,0,1.6-0.1,2.1-0.2c1-0.2,2.3-1,3.5-1.8c1.9,1.3,2.9,1.6,3.5,1.8
		c0.6,0.1,1.3,0.2,2.1,0.2C22.6,14.4,22.3,16.4,21.5,18.6z"/>
</g>
<g id="Users">
	<g>
		<path fill="#6F7080" d="M17.1,1.5c-8.8,0-16,7.2-16,16s7.2,16,16,16c8.8,0,16-7.2,16-16S25.9,1.5,17.1,1.5z M17.1,32.5
			c-8.3,0-15-6.7-15-15s6.7-15,15-15c8.3,0,15,6.7,15,15S25.4,32.5,17.1,32.5z"/>
		<path fill="#6F7080" d="M22,21c-1.1-0.2-2.7-1.3-2.7-1.8V18c0-0.4,0.6-1.3,0.9-2.1c0-0.1,0.2,0,0.3-0.2c0.3-0.3,0.3-0.9,0.4-1.1
			c0.1-0.4-0.4-0.4-0.4-0.4s0.3-2,0-3.3c-0.4-1.7-2.6-2.6-3.5-2.6c-0.9,0-3.1,0.9-3.5,2.6c-0.3,1.3,0,3.3,0,3.3s-0.4,0-0.3,0.4
			c0.1,0.2,0.1,0.8,0.4,1.1C13.9,16,14,15.9,14,16c0.3,0.8,0.9,1.6,0.9,2.1v1.2c0,0.5-1.5,1.6-2.7,1.8c-1.4,0.2-2.2,1.2-1.8,3.7
			c0.2,1.2,3.5,1.8,6.7,1.7c3.3,0,6.6-0.5,6.8-1.7C24.2,22.2,23.5,21.2,22,21z"/>
	</g>
</g>
</svg>
